<svg viewBox="0 0 202 65" fill="none" xmlns="http://www.w3.org/2000/svg">
  <path
    d="M0.597125 2.152L0.565125 1.896C0.565125 1.36267 0.970458 1.096 1.78113 1.096C2.20779 1.096 2.52779 1.16 2.74113 1.288C2.95446 1.416 3.09313 1.66133 3.15712 2.024L6.77313 25.832L15.7971 4.104C15.8611 3.93333 15.9678 3.656 16.1171 3.272C16.2878 2.888 16.4158 2.58933 16.5011 2.376C16.5865 2.16267 16.6931 1.93866 16.8211 1.704C17.0771 1.29867 17.3651 1.096 17.6851 1.096C18.0051 1.096 18.3145 1.18133 18.6131 1.352C18.9331 1.52267 19.0931 1.78933 19.0931 2.152C19.0931 2.49333 18.6238 3.76267 17.6851 5.96L8.21313 28.52C7.95713 29.1387 7.35979 29.448 6.42113 29.448C5.48246 29.448 4.94913 29.1387 4.82113 28.52L0.597125 2.152ZM20.5251 29.448C20.2051 29.448 19.9811 29.4053 19.8531 29.32C19.7251 29.2347 19.6611 29.064 19.6611 28.808L21.4851 13.576C21.5491 13.0427 21.9651 12.776 22.7331 12.776C23.5011 12.776 23.8851 12.9893 23.8851 13.416L22.0291 28.648C21.9651 29.1813 21.4638 29.448 20.5251 29.448ZM25.1651 6.856C25.1651 8.17867 24.5571 8.84 23.3411 8.84C22.3811 8.84 21.9011 8.43467 21.9011 7.624C21.9011 6.32267 22.5091 5.672 23.7251 5.672C24.6851 5.672 25.1651 6.06667 25.1651 6.856ZM35.4736 12.776C36.647 12.776 37.6496 13 38.4816 13.448C39.3136 13.896 39.7296 14.312 39.7296 14.696C39.7296 15.016 39.6016 15.3253 39.3456 15.624C39.111 15.9013 38.8976 16.04 38.7056 16.04C38.5136 16.04 38.3003 15.9333 38.0656 15.72C37.3616 15.08 36.487 14.76 35.4416 14.76C34.3963 14.76 33.479 14.984 32.6896 15.432C31.9216 15.88 31.3243 16.4773 30.8976 17.224C30.023 18.7387 29.5856 20.3813 29.5856 22.152C29.5856 23.9013 29.9483 25.224 30.6736 26.12C31.4203 27.016 32.4976 27.464 33.9056 27.464C34.5456 27.464 35.175 27.3253 35.7936 27.048C36.4336 26.7707 36.935 26.4933 37.2976 26.216C37.6603 25.9173 37.8523 25.768 37.8736 25.768C38.1083 25.768 38.3003 25.928 38.4496 26.248C38.6203 26.568 38.7056 26.888 38.7056 27.208C38.7056 27.592 38.1403 28.0613 37.0096 28.616C35.9003 29.1707 34.823 29.448 33.7776 29.448C31.559 29.448 29.863 28.8293 28.6896 27.592C27.5376 26.3333 26.9616 24.5093 26.9616 22.12C26.9616 19.7093 27.7403 17.5547 29.2976 15.656C30.855 13.736 32.9136 12.776 35.4736 12.776ZM43.0266 13.224H44.9146L45.4906 8.296C45.5333 7.976 45.736 7.72 46.0986 7.528C46.4613 7.336 46.8133 7.24 47.1546 7.24C47.496 7.24 47.7093 7.26133 47.7946 7.304C47.88 7.34667 47.9226 7.45333 47.9226 7.624L47.2506 13.224H50.2266C50.7173 13.224 50.9626 13.544 50.9626 14.184C50.9626 14.4613 50.8666 14.728 50.6746 14.984C50.4826 15.24 50.2586 15.368 50.0026 15.368H46.9626L46.1306 22.376C46.024 23.2293 45.9706 24.0613 45.9706 24.872C45.9706 25.6827 46.056 26.472 46.2266 27.24C46.4186 28.008 46.5146 28.4453 46.5146 28.552C46.5146 28.808 46.312 29.0213 45.9066 29.192C45.5226 29.3627 45.1493 29.448 44.7866 29.448C44.4453 29.448 44.1573 29.032 43.9226 28.2C43.7093 27.3467 43.6026 26.472 43.6026 25.576C43.6026 24.6587 43.6666 23.592 43.7946 22.376L44.6266 15.368H42.8026C42.3333 15.368 42.0986 15.0587 42.0986 14.44C42.0986 14.1413 42.184 13.864 42.3546 13.608C42.5466 13.352 42.7706 13.224 43.0266 13.224ZM60.2221 12.776C62.2061 12.776 63.7421 13.4693 64.8301 14.856C65.9395 16.2427 66.4941 17.9387 66.4941 19.944C66.4941 22.5893 65.7048 24.84 64.1261 26.696C62.5688 28.5307 60.5421 29.448 58.0461 29.448C56.0621 29.448 54.5261 28.776 53.4381 27.432C52.3715 26.0667 51.8168 24.3813 51.7741 22.376C51.7741 20.0507 52.4248 17.9173 53.7261 15.976C54.3875 15.016 55.2728 14.248 56.3821 13.672C57.5128 13.0747 58.7928 12.776 60.2221 12.776ZM56.8301 15.944C55.9341 16.712 55.2941 17.64 54.9101 18.728C54.5261 19.7947 54.3341 21.032 54.3341 22.44C54.3341 23.8267 54.6648 25.0107 55.3261 25.992C55.9875 26.9733 57.0541 27.464 58.5261 27.464C60.0195 27.464 61.3101 26.7493 62.3981 25.32C63.4861 23.8907 64.0301 22.28 64.0301 20.488C64.0301 18.696 63.6888 17.2987 63.0061 16.296C62.3235 15.272 61.3421 14.76 60.0621 14.76C58.8035 14.76 57.7261 15.1547 56.8301 15.944ZM78.5876 14.888C77.0303 14.888 75.7396 15.6667 74.7156 17.224C73.713 18.76 73.0836 20.6053 72.8276 22.76L72.0916 28.648C72.0276 29.1813 71.5263 29.448 70.5876 29.448C70.2676 29.448 70.0436 29.4053 69.9156 29.32C69.7876 29.2347 69.7236 29.064 69.7236 28.808L71.5476 13.576C71.6116 13.0427 72.0276 12.776 72.7956 12.776C73.5636 12.776 73.9476 12.9893 73.9476 13.416L73.6276 15.816H73.7876C74.385 14.8347 75.1636 14.0453 76.1236 13.448C77.0836 12.8507 78.0863 12.552 79.1316 12.552C79.7503 12.552 80.0596 12.776 80.0596 13.224C80.0596 13.672 79.9636 14.024 79.7716 14.28C79.4943 14.6853 79.0996 14.888 78.5876 14.888ZM82.6501 29.448C82.3301 29.448 82.1061 29.4053 81.9781 29.32C81.8501 29.2347 81.7861 29.064 81.7861 28.808L83.6101 13.576C83.6741 13.0427 84.0901 12.776 84.8581 12.776C85.6261 12.776 86.0101 12.9893 86.0101 13.416L84.1541 28.648C84.0901 29.1813 83.5888 29.448 82.6501 29.448ZM87.2901 6.856C87.2901 8.17867 86.6821 8.84 85.4661 8.84C84.5061 8.84 84.0261 8.43467 84.0261 7.624C84.0261 6.32267 84.6341 5.672 85.8501 5.672C86.8101 5.672 87.2901 6.06667 87.2901 6.856ZM91.1346 25.064C91.1346 25.704 91.348 26.248 91.7746 26.696C92.2226 27.1227 92.8093 27.336 93.5346 27.336C94.8573 27.336 95.9773 26.6747 96.8946 25.352C97.812 24.008 98.4093 22.4933 98.6866 20.808C95.956 21.0213 94.0146 21.4907 92.8626 22.216C91.7106 22.9413 91.1346 23.8907 91.1346 25.064ZM101.727 16.456C101.727 17.032 101.524 18.4613 101.119 20.744C100.735 23.0053 100.543 24.5627 100.543 25.416C100.543 26.2693 100.596 26.9733 100.703 27.528C100.831 28.0827 100.895 28.424 100.895 28.552C100.895 28.808 100.681 29.0213 100.255 29.192C99.828 29.3627 99.4226 29.448 99.0386 29.448C98.5693 29.448 98.3346 28.488 98.3346 26.568V25.736C97.716 26.952 96.8946 27.88 95.8706 28.52C94.8466 29.1387 93.7693 29.448 92.6386 29.448C91.508 29.448 90.548 29.1067 89.7586 28.424C88.9906 27.7413 88.6066 26.7813 88.6066 25.544C88.6066 23.7733 89.4173 22.28 91.0386 21.064C92.6813 19.848 95.3693 19.1227 99.1026 18.888C99.2093 18.248 99.2626 17.5867 99.2626 16.904C99.2626 15.5813 98.2813 14.92 96.3186 14.92C95.3373 14.92 94.3346 15.1227 93.3106 15.528C92.308 15.9333 91.7853 16.136 91.7426 16.136C91.4653 16.136 91.2413 15.976 91.0706 15.656C90.9 15.3147 90.8146 14.9627 90.8146 14.6C90.8146 14.2373 91.476 13.8427 92.7986 13.416C94.1213 12.9893 95.4333 12.776 96.7346 12.776C98.036 12.776 99.188 13.0747 100.191 13.672C101.215 14.248 101.727 15.176 101.727 16.456ZM128.039 13.96C131.559 15.4747 133.319 17.864 133.319 21.128C133.319 22.856 132.796 24.3707 131.751 25.672C129.745 28.1893 126.503 29.448 122.023 29.448C119.697 29.448 117.735 29.3627 116.135 29.192L115.431 29.096C114.62 29.032 114.215 28.712 114.215 28.136V27.976L117.319 2.216C117.425 1.46933 119.847 1.096 124.583 1.096C126.972 1.096 128.967 1.61867 130.567 2.664C132.188 3.688 133.009 5.18133 133.031 7.144C133.031 8.68 132.593 10.0347 131.719 11.208C130.844 12.3813 129.617 13.2987 128.039 13.96ZM123.175 14.92H118.311L116.871 27.016C118.364 27.1653 119.964 27.24 121.671 27.24C123.377 27.24 124.881 27.016 126.183 26.568C127.484 26.0987 128.572 25.3733 129.447 24.392C130.321 23.4107 130.759 22.2693 130.759 20.968C130.759 19.3467 130.012 17.9387 128.519 16.744C127.025 15.528 125.244 14.92 123.175 14.92ZM124.455 12.904C126.204 12.6693 127.644 12.0507 128.775 11.048C129.927 10.024 130.503 8.79733 130.503 7.368C130.503 5.91733 129.927 4.84 128.775 4.136C127.623 3.41067 126.183 3.048 124.455 3.048C122.727 3.048 121.137 3.176 119.687 3.432L118.567 12.904H124.455ZM147.299 16.36C147.299 15.8267 147.128 15.4213 146.787 15.144C146.467 14.8453 146.04 14.696 145.507 14.696C144.355 14.696 143.16 15.2293 141.923 16.296C140.686 17.3413 139.918 18.7493 139.619 20.52C141.603 20.52 143.374 20.1253 144.931 19.336C146.51 18.5467 147.299 17.5547 147.299 16.36ZM136.899 22.376C136.899 20.8187 137.187 19.4 137.763 18.12C138.339 16.84 139.064 15.8267 139.939 15.08C141.774 13.544 143.672 12.776 145.635 12.776C146.808 12.776 147.768 13.064 148.515 13.64C149.262 14.1947 149.635 14.9947 149.635 16.04C149.635 17.9173 148.654 19.4533 146.691 20.648C144.75 21.8213 142.35 22.408 139.491 22.408C139.491 24.008 139.864 25.256 140.611 26.152C141.358 27.0267 142.435 27.464 143.843 27.464C144.504 27.464 145.144 27.3253 145.763 27.048C146.382 26.7707 146.872 26.4827 147.235 26.184L147.779 25.768C148.014 25.768 148.216 25.928 148.387 26.248C148.558 26.568 148.643 26.888 148.643 27.208C148.643 27.592 148.078 28.0613 146.947 28.616C145.838 29.1707 144.76 29.448 143.715 29.448C141.496 29.448 139.8 28.84 138.627 27.624C137.475 26.3867 136.899 24.6373 136.899 22.376ZM153.025 29.448C152.705 29.448 152.481 29.4053 152.353 29.32C152.225 29.2347 152.161 29.064 152.161 28.808L155.425 1.448C155.51 0.893332 155.926 0.615999 156.673 0.615999C157.441 0.615999 157.825 0.839999 157.825 1.288L154.529 28.648C154.465 29.1813 153.964 29.448 153.025 29.448ZM169.862 16.36C169.862 15.8267 169.691 15.4213 169.35 15.144C169.03 14.8453 168.603 14.696 168.07 14.696C166.918 14.696 165.723 15.2293 164.486 16.296C163.248 17.3413 162.48 18.7493 162.182 20.52C164.166 20.52 165.936 20.1253 167.494 19.336C169.072 18.5467 169.862 17.5547 169.862 16.36ZM159.462 22.376C159.462 20.8187 159.75 19.4 160.326 18.12C160.902 16.84 161.627 15.8267 162.502 15.08C164.336 13.544 166.235 12.776 168.198 12.776C169.371 12.776 170.331 13.064 171.078 13.64C171.824 14.1947 172.198 14.9947 172.198 16.04C172.198 17.9173 171.216 19.4533 169.254 20.648C167.312 21.8213 164.912 22.408 162.054 22.408C162.054 24.008 162.427 25.256 163.174 26.152C163.92 27.0267 164.998 27.464 166.406 27.464C167.067 27.464 167.707 27.3253 168.326 27.048C168.944 26.7707 169.435 26.4827 169.798 26.184L170.342 25.768C170.576 25.768 170.779 25.928 170.95 26.248C171.12 26.568 171.206 26.888 171.206 27.208C171.206 27.592 170.64 28.0613 169.51 28.616C168.4 29.1707 167.323 29.448 166.278 29.448C164.059 29.448 162.363 28.84 161.19 27.624C160.038 26.3867 159.462 24.6373 159.462 22.376ZM184.708 14.216C184.708 13.5973 184.793 13.2027 184.964 13.032C185.156 12.8613 185.465 12.776 185.892 12.776C186.318 12.776 186.585 12.8613 186.692 13.032C186.82 13.2027 186.884 13.5973 186.884 14.216C186.884 16.392 186.393 18.6853 185.412 21.096C184.43 23.4853 183.193 25.48 181.7 27.08C180.228 28.6587 178.82 29.448 177.476 29.448C176.75 29.448 176.366 29.0427 176.324 28.232L174.308 13.512C174.308 13.0213 174.681 12.776 175.428 12.776C175.897 12.776 176.206 12.8613 176.356 13.032C176.526 13.1813 176.644 13.5013 176.708 13.992L178.5 27.08C181.934 24.968 184.004 20.68 184.708 14.216ZM191.26 25.064C191.26 25.704 191.473 26.248 191.9 26.696C192.348 27.1227 192.934 27.336 193.66 27.336C194.982 27.336 196.102 26.6747 197.02 25.352C197.937 24.008 198.534 22.4933 198.812 20.808C196.081 21.0213 194.14 21.4907 192.988 22.216C191.836 22.9413 191.26 23.8907 191.26 25.064ZM201.852 16.456C201.852 17.032 201.649 18.4613 201.244 20.744C200.86 23.0053 200.668 24.5627 200.668 25.416C200.668 26.2693 200.721 26.9733 200.828 27.528C200.956 28.0827 201.02 28.424 201.02 28.552C201.02 28.808 200.806 29.0213 200.38 29.192C199.953 29.3627 199.548 29.448 199.164 29.448C198.694 29.448 198.46 28.488 198.46 26.568V25.736C197.841 26.952 197.02 27.88 195.996 28.52C194.972 29.1387 193.894 29.448 192.764 29.448C191.633 29.448 190.673 29.1067 189.884 28.424C189.116 27.7413 188.732 26.7813 188.732 25.544C188.732 23.7733 189.542 22.28 191.164 21.064C192.806 19.848 195.494 19.1227 199.228 18.888C199.334 18.248 199.388 17.5867 199.388 16.904C199.388 15.5813 198.406 14.92 196.444 14.92C195.462 14.92 194.46 15.1227 193.436 15.528C192.433 15.9333 191.91 16.136 191.868 16.136C191.59 16.136 191.366 15.976 191.196 15.656C191.025 15.3147 190.94 14.9627 190.94 14.6C190.94 14.2373 191.601 13.8427 192.924 13.416C194.246 12.9893 195.558 12.776 196.86 12.776C198.161 12.776 199.313 13.0747 200.316 13.672C201.34 14.248 201.852 15.176 201.852 16.456ZM45.6947 40.8H53.4147C53.828 40.8 54.0347 40.98 54.0347 41.34C54.0347 41.6067 53.9814 41.7933 53.8747 41.9C53.7814 42.0067 53.5947 42.06 53.3147 42.06H46.5947L45.9147 48.32H52.1347C52.6014 48.32 52.8347 48.4933 52.8347 48.84C52.8347 49.1067 52.7747 49.3 52.6547 49.42C52.548 49.5267 52.3547 49.58 52.0747 49.58H45.7547L44.7347 57.64C44.6814 58.0667 44.408 58.28 43.9147 58.28C43.4347 58.28 43.1947 58.0933 43.1947 57.72L45.1347 41.48C45.2014 41.0267 45.388 40.8 45.6947 40.8ZM61.7894 50.94L61.8294 50.64C61.8294 49.6667 61.2294 49.18 60.0294 49.18C59.0427 49.18 58.2427 49.6333 57.6294 50.54C57.016 51.4333 56.616 52.62 56.4294 54.1L55.9694 57.78C55.9294 58.1133 55.616 58.28 55.0294 58.28C54.8294 58.28 54.6894 58.2533 54.6094 58.2C54.5294 58.1467 54.4894 58.04 54.4894 57.88L56.5294 40.78C56.5827 40.4333 56.8427 40.26 57.3094 40.26C57.7894 40.26 58.0294 40.4 58.0294 40.68L56.9894 49.68C57.8427 48.4667 58.9227 47.86 60.2294 47.86C61.2427 47.86 62.016 48.1 62.5494 48.58C63.096 49.0467 63.3694 49.6933 63.3694 50.52C63.3694 50.64 63.0627 53.06 62.4494 57.78C62.4094 58.1133 62.0827 58.28 61.4694 58.28C61.1227 58.28 60.9494 58.1467 60.9494 57.88L61.7894 50.94ZM70.8361 47.86C72.0761 47.86 73.0361 48.2933 73.7161 49.16C74.4094 50.0267 74.7561 51.0867 74.7561 52.34C74.7561 53.9933 74.2628 55.4 73.2761 56.56C72.3028 57.7067 71.0361 58.28 69.4761 58.28C68.2361 58.28 67.2761 57.86 66.5961 57.02C65.9294 56.1667 65.5828 55.1133 65.5561 53.86C65.5561 52.4067 65.9628 51.0733 66.7761 49.86C67.1894 49.26 67.7428 48.78 68.4361 48.42C69.1428 48.0467 69.9428 47.86 70.8361 47.86ZM68.7161 49.84C68.1561 50.32 67.7561 50.9 67.5161 51.58C67.2761 52.2467 67.1561 53.02 67.1561 53.9C67.1561 54.7667 67.3628 55.5067 67.7761 56.12C68.1894 56.7333 68.8561 57.04 69.7761 57.04C70.7094 57.04 71.5161 56.5933 72.1961 55.7C72.8761 54.8067 73.2161 53.8 73.2161 52.68C73.2161 51.56 73.0028 50.6867 72.5761 50.06C72.1494 49.42 71.5361 49.1 70.7361 49.1C69.9494 49.1 69.2761 49.3467 68.7161 49.84ZM77.3545 48.14H78.5345L78.8945 45.06C78.9212 44.86 79.0479 44.7 79.2745 44.58C79.5012 44.46 79.7212 44.4 79.9345 44.4C80.1479 44.4 80.2812 44.4133 80.3345 44.44C80.3879 44.4667 80.4145 44.5333 80.4145 44.64L79.9945 48.14H81.8545C82.1612 48.14 82.3145 48.34 82.3145 48.74C82.3145 48.9133 82.2545 49.08 82.1345 49.24C82.0145 49.4 81.8745 49.48 81.7145 49.48H79.8145L79.2945 53.86C79.2279 54.3933 79.1945 54.9133 79.1945 55.42C79.1945 55.9267 79.2479 56.42 79.3545 56.9C79.4745 57.38 79.5345 57.6533 79.5345 57.72C79.5345 57.88 79.4079 58.0133 79.1545 58.12C78.9145 58.2267 78.6812 58.28 78.4545 58.28C78.2412 58.28 78.0612 58.02 77.9145 57.5C77.7812 56.9667 77.7145 56.42 77.7145 55.86C77.7145 55.2867 77.7545 54.62 77.8345 53.86L78.3545 49.48H77.2145C76.9212 49.48 76.7745 49.2867 76.7745 48.9C76.7745 48.7133 76.8279 48.54 76.9345 48.38C77.0545 48.22 77.1945 48.14 77.3545 48.14ZM88.1017 47.86C89.3417 47.86 90.3017 48.2933 90.9817 49.16C91.6751 50.0267 92.0217 51.0867 92.0217 52.34C92.0217 53.9933 91.5284 55.4 90.5417 56.56C89.5684 57.7067 88.3017 58.28 86.7417 58.28C85.5017 58.28 84.5417 57.86 83.8617 57.02C83.1951 56.1667 82.8484 55.1133 82.8217 53.86C82.8217 52.4067 83.2284 51.0733 84.0417 49.86C84.4551 49.26 85.0084 48.78 85.7017 48.42C86.4084 48.0467 87.2084 47.86 88.1017 47.86ZM85.9817 49.84C85.4217 50.32 85.0217 50.9 84.7817 51.58C84.5417 52.2467 84.4217 53.02 84.4217 53.9C84.4217 54.7667 84.6284 55.5067 85.0417 56.12C85.4551 56.7333 86.1217 57.04 87.0417 57.04C87.9751 57.04 88.7817 56.5933 89.4617 55.7C90.1417 54.8067 90.4817 53.8 90.4817 52.68C90.4817 51.56 90.2684 50.6867 89.8417 50.06C89.4151 49.42 88.8017 49.1 88.0017 49.1C87.2151 49.1 86.5417 49.3467 85.9817 49.84ZM100.26 49.1C98.7935 49.1 97.5735 49.6267 96.6002 50.68C95.6268 51.7333 95.1402 53 95.1402 54.48C95.1402 55.1867 95.3068 55.78 95.6402 56.26C95.9735 56.7267 96.4602 56.96 97.1002 56.96C98.8868 56.96 99.9868 55.28 100.4 51.92L100.74 49.16C100.647 49.12 100.487 49.1 100.26 49.1ZM99.8402 56.62C99.4002 57.22 98.9335 57.6467 98.4402 57.9C97.9468 58.1533 97.3002 58.28 96.5002 58.28C95.7135 58.28 95.0135 57.9733 94.4002 57.36C93.8002 56.7467 93.5002 55.8467 93.5002 54.66C93.5002 53.38 93.8068 52.2 94.4202 51.12C94.7802 50.4933 95.2268 49.9467 95.7602 49.48C96.3068 49 97.0202 48.6133 97.9002 48.32C98.7802 48.0133 99.7268 47.86 100.74 47.86C101.767 47.86 102.28 48.1533 102.28 48.74L100.88 59.82C100.68 61.42 100.233 62.66 99.5402 63.54C98.8602 64.42 97.7668 64.86 96.2602 64.86C95.6868 64.86 95.1135 64.7867 94.5402 64.64C93.9668 64.4933 93.5202 64.3267 93.2002 64.14C92.8802 63.9533 92.7202 63.7667 92.7202 63.58C92.7202 63.4067 92.7735 63.1867 92.8802 62.92C93.0002 62.6667 93.1468 62.54 93.3202 62.54C93.3335 62.54 93.3868 62.5733 93.4802 62.64C93.5868 62.72 93.7268 62.8067 93.9002 62.9C94.0735 63.0067 94.2735 63.1067 94.5002 63.2C95.0335 63.4533 95.6602 63.58 96.3802 63.58C97.1135 63.58 97.7068 63.3867 98.1602 63C98.6135 62.6133 98.9668 61.9333 99.2202 60.96C99.4735 60 99.6802 58.5533 99.8402 56.62ZM110.068 49.18C109.095 49.18 108.288 49.6667 107.648 50.64C107.022 51.6 106.628 52.7533 106.468 54.1L106.008 57.78C105.968 58.1133 105.655 58.28 105.068 58.28C104.868 58.28 104.728 58.2533 104.648 58.2C104.568 58.1467 104.528 58.04 104.528 57.88L105.668 48.36C105.708 48.0267 105.968 47.86 106.448 47.86C106.928 47.86 107.168 47.9933 107.168 48.26L106.968 49.76H107.068C107.442 49.1467 107.928 48.6533 108.528 48.28C109.128 47.9067 109.755 47.72 110.408 47.72C110.795 47.72 110.988 47.86 110.988 48.14C110.988 48.42 110.928 48.64 110.808 48.8C110.635 49.0533 110.388 49.18 110.068 49.18ZM113.028 55.54C113.028 55.94 113.161 56.28 113.428 56.56C113.708 56.8267 114.074 56.96 114.528 56.96C115.354 56.96 116.054 56.5467 116.628 55.72C117.201 54.88 117.574 53.9333 117.748 52.88C116.041 53.0133 114.828 53.3067 114.108 53.76C113.388 54.2133 113.028 54.8067 113.028 55.54ZM119.648 50.16C119.648 50.52 119.521 51.4133 119.268 52.84C119.028 54.2533 118.908 55.2267 118.908 55.76C118.908 56.2933 118.941 56.7333 119.008 57.08C119.088 57.4267 119.128 57.64 119.128 57.72C119.128 57.88 118.994 58.0133 118.728 58.12C118.461 58.2267 118.208 58.28 117.968 58.28C117.674 58.28 117.528 57.68 117.528 56.48V55.96C117.141 56.72 116.628 57.3 115.988 57.7C115.348 58.0867 114.674 58.28 113.968 58.28C113.261 58.28 112.661 58.0667 112.168 57.64C111.688 57.2133 111.448 56.6133 111.448 55.84C111.448 54.7333 111.954 53.8 112.968 53.04C113.994 52.28 115.674 51.8267 118.008 51.68C118.074 51.28 118.108 50.8667 118.108 50.44C118.108 49.6133 117.494 49.2 116.268 49.2C115.654 49.2 115.028 49.3267 114.388 49.58C113.761 49.8333 113.434 49.96 113.408 49.96C113.234 49.96 113.094 49.86 112.988 49.66C112.881 49.4467 112.828 49.2267 112.828 49C112.828 48.7733 113.241 48.5267 114.068 48.26C114.894 47.9933 115.714 47.86 116.528 47.86C117.341 47.86 118.061 48.0467 118.688 48.42C119.328 48.78 119.648 49.36 119.648 50.16ZM121.807 65C121.447 65 121.267 64.8667 121.267 64.6L123.267 48.36C123.307 48.16 123.394 48.0267 123.527 47.96C123.674 47.8933 123.914 47.86 124.247 47.86C124.58 47.86 124.747 47.9933 124.747 48.26L124.607 49.68C125.474 48.4667 126.554 47.86 127.847 47.86C128.714 47.86 129.447 48.1667 130.047 48.78C130.66 49.3933 130.967 50.2933 130.967 51.48C130.967 52.7733 130.654 53.96 130.027 55.04C129.68 55.6667 129.24 56.2133 128.707 56.68C128.174 57.1467 127.467 57.5333 126.587 57.84C125.707 58.1333 124.714 58.28 123.607 58.28L122.767 64.5C122.727 64.8333 122.407 65 121.807 65ZM124.247 57.04C125.7 57.04 126.914 56.5133 127.887 55.46C128.86 54.4067 129.347 53.1467 129.347 51.68C129.347 50.9733 129.18 50.38 128.847 49.9C128.514 49.42 128.027 49.18 127.387 49.18C125.56 49.18 124.454 50.86 124.067 54.22L123.747 57C123.854 57.0267 124.02 57.04 124.247 57.04ZM140.481 50.94L140.521 50.64C140.521 49.6667 139.921 49.18 138.721 49.18C137.734 49.18 136.934 49.6333 136.321 50.54C135.707 51.4333 135.307 52.62 135.121 54.1L134.661 57.78C134.621 58.1133 134.307 58.28 133.721 58.28C133.521 58.28 133.381 58.2533 133.301 58.2C133.221 58.1467 133.181 58.04 133.181 57.88L135.221 40.78C135.274 40.4333 135.534 40.26 136.001 40.26C136.481 40.26 136.721 40.4 136.721 40.68L135.681 49.68C136.534 48.4667 137.614 47.86 138.921 47.86C139.934 47.86 140.707 48.1 141.241 48.58C141.787 49.0467 142.061 49.6933 142.061 50.52C142.061 50.64 141.754 53.06 141.141 57.78C141.101 58.1133 140.774 58.28 140.161 58.28C139.814 58.28 139.641 58.1467 139.641 57.88L140.481 50.94ZM150.748 50.1C150.748 49.7667 150.641 49.5133 150.428 49.34C150.228 49.1533 149.961 49.06 149.628 49.06C148.908 49.06 148.161 49.3933 147.388 50.06C146.614 50.7133 146.134 51.5933 145.948 52.7C147.188 52.7 148.294 52.4533 149.268 51.96C150.254 51.4667 150.748 50.8467 150.748 50.1ZM144.248 53.86C144.248 52.8867 144.428 52 144.788 51.2C145.148 50.4 145.601 49.7667 146.148 49.3C147.294 48.34 148.481 47.86 149.708 47.86C150.441 47.86 151.041 48.04 151.508 48.4C151.974 48.7467 152.208 49.2467 152.208 49.9C152.208 51.0733 151.594 52.0333 150.368 52.78C149.154 53.5133 147.654 53.88 145.868 53.88C145.868 54.88 146.101 55.66 146.568 56.22C147.034 56.7667 147.708 57.04 148.588 57.04C149.001 57.04 149.401 56.9533 149.788 56.78C150.174 56.6067 150.481 56.4267 150.708 56.24L151.048 55.98C151.194 55.98 151.321 56.08 151.428 56.28C151.534 56.48 151.588 56.68 151.588 56.88C151.588 57.12 151.234 57.4133 150.528 57.76C149.834 58.1067 149.161 58.28 148.508 58.28C147.121 58.28 146.061 57.9 145.328 57.14C144.608 56.3667 144.248 55.2733 144.248 53.86ZM159.326 49.18C158.353 49.18 157.546 49.6667 156.906 50.64C156.28 51.6 155.886 52.7533 155.726 54.1L155.266 57.78C155.226 58.1133 154.913 58.28 154.326 58.28C154.126 58.28 153.986 58.2533 153.906 58.2C153.826 58.1467 153.786 58.04 153.786 57.88L154.926 48.36C154.966 48.0267 155.226 47.86 155.706 47.86C156.186 47.86 156.426 47.9933 156.426 48.26L156.226 49.76H156.326C156.7 49.1467 157.186 48.6533 157.786 48.28C158.386 47.9067 159.013 47.72 159.666 47.72C160.053 47.72 160.246 47.86 160.246 48.14C160.246 48.42 160.186 48.64 160.066 48.8C159.893 49.0533 159.646 49.18 159.326 49.18Z"
    fill="black" fill-opacity="0.66" />
</svg>